Coordinates
version=1
nRows=21
nColumns=34
inDegrees=no

Units are S.I. units (second, meters, Newtons, ...)
If the header above contains a line with 'inDegrees', this indicates whether rotational values are in degrees (yes) or radians (no).

endheader
time	pelvis_tilt	pelvis_list	pelvis_rotation	pelvis_tx	pelvis_ty	pelvis_tz	hip_flexion_r	hip_adduction_r	hip_rotation_r	knee_angle_r	ankle_angle_r	subtalar_angle_r	mtp_angle_r	hip_flexion_l	hip_adduction_l	hip_rotation_l	knee_angle_l	ankle_angle_l	subtalar_angle_l	mtp_angle_l	lumbar_extension	lumbar_bending	lumbar_rotation	arm_flex_r	arm_add_r	arm_rot_r	elbow_flex_r	pro_sup_r	arm_flex_l	arm_add_l	arm_rot_l	elbow_flex_l	pro_sup_l
0.46	0.136334	-0.0200014	0.0836825	0.259002	1.16276	-0.243495	-0.162568	0.082829	-0.175438	0.124508	0.141998	-0.0345339	-0.0172171	0.315271	-0.0699825	-0.093046	0.565954	0.0123482	-0.0637586	-0.0610861	-0.415328	0.106314	-0.0383748	-0.0967227	-0.191779	-0.226091	0.7752	1.85163	-0.0685475	-0.190613	0.0416852	0.770657	1.97577
0.47	0.136447	-0.0198486	0.0826009	0.26792	1.16198	-0.242708	-0.173957	0.0845088	-0.172302	0.119632	0.148344	-0.031833	-0.0172494	0.320271	-0.0669894	-0.100334	0.537423	0.0137942	-0.0357142	-0.0610204	-0.416466	0.101427	-0.0382526	-0.0963588	-0.191685	-0.22452	0.773254	1.85603	-0.0637768	-0.190481	0.0360388	0.77171	1.97241
0.48	0.136678	-0.0193429	0.08141	0.276896	1.16116	-0.241913	-0.18549	0.0857589	-0.169029	0.114842	0.154623	-0.0294894	-0.0172816	0.323917	-0.0634014	-0.10755	0.5081	0.014769	-0.00717513	-0.0609548	-0.417788	0.0958837	-0.0382116	-0.0963162	-0.191565	-0.222707	0.771093	1.86094	-0.0589311	-0.190514	0.0309057	0.77231	1.96918
0.49	0.137056	-0.018494	0.0800893	0.285937	1.16029	-0.24111	-0.197174	0.0865821	-0.165643	0.11018	0.160808	-0.0275089	-0.0173138	0.326107	-0.0592236	-0.114632	0.47782	0.0152856	0.0214439	-0.0608891	-0.419325	0.0897011	-0.0382526	-0.0965708	-0.191458	-0.220579	0.768697	1.86638	-0.054021	-0.190715	0.0263009	0.772328	1.96634
0.5	0.137587	-0.0173518	0.0786155	0.295048	1.15939	-0.240299	-0.208976	0.0870157	-0.162193	0.105726	0.166876	-0.0258536	-0.017346	0.326788	-0.054507	-0.121527	0.446467	0.015306	0.0496612	-0.0608235	-0.421081	0.0829409	-0.0383713	-0.0970894	-0.191401	-0.218071	0.766044	1.87228	-0.049072	-0.191067	0.0221727	0.771692	1.96406
0.51	0.138253	-0.0160053	0.07697	0.304233	1.15846	-0.239482	-0.22082	0.0871311	-0.158767	0.10158	0.172807	-0.024424	-0.0173782	0.325973	-0.0493461	-0.128184	0.413999	0.0147567	0.0769612	-0.0607579	-0.423023	0.075709	-0.0385644	-0.0978323	-0.191417	-0.215135	0.763124	1.87847	-0.0441255	-0.19153	0.0184131	0.770382	1.96242
0.52	0.13901	-0.0145735	0.0751456	0.313497	1.15749	-0.23866	-0.232605	0.0870293	-0.155498	0.0978467	0.178586	-0.0230499	-0.0174104	0.323742	-0.043871	-0.134555	0.380459	0.0135531	0.102844	-0.0606923	-0.425083	0.068149	-0.0388374	-0.0987576	-0.191521	-0.211744	0.759931	1.88468	-0.0392375	-0.192047	0.0148725	0.768424	1.96139
0.53	0.139796	-0.0131921	0.07315	0.322847	1.15649	-0.237838	-0.244212	0.0868312	-0.152557	0.0946205	0.184202	-0.0214912	-0.0174426	0.320241	-0.0382357	-0.140597	0.345976	0.011629	0.12688	-0.0606267	-0.427167	0.0604277	-0.0392096	-0.0998243	-0.191707	-0.207901	0.756471	1.89058	-0.0344763	-0.192551	0.011375	0.765877	1.9609
0.54	0.140533	-0.0119966	0.0710066	0.332288	1.15546	-0.237019	-0.255532	0.0866629	-0.150145	0.091968	0.189643	-0.0194491	-0.0174748	0.315662	-0.0326029	-0.146277	0.31076	0.00896243	0.148771	-0.0605612	-0.429168	0.0527161	-0.0397161	-0.100996	-0.191959	-0.203639	0.752753	1.89587	-0.0299191	-0.192977	0.00773229	0.762822	1.96085
0.55	0.141144	-0.0111056	0.0687514	0.341824	1.15439	-0.236209	-0.266473	0.0866381	-0.148478	0.0899213	0.194898	-0.0165856	-0.017507	0.310224	-0.0271269	-0.151572	0.27509	0.00559454	0.168378	-0.0604957	-0.430976	0.0451681	-0.0404054	-0.102244	-0.192245	-0.199015	0.748783	1.90036	-0.0256467	-0.19326	0.0037542	0.759358	1.96111
0.56	0.141557	-0.0106059	0.0664264	0.35146	1.15329	-0.235408	-0.276972	0.0868399	-0.147771	0.0884797	0.19995	-0.0125491	-0.0175391	0.304158	-0.021937	-0.156468	0.2393	0.00163812	0.185744	-0.0604302	-0.432498	0.0378997	-0.0413339	-0.103548	-0.19253	-0.194109	0.744567	1.90401	-0.0217374	-0.193349	-0.000741683	0.755602	1.96157
0.57	0.141716	-0.0105437	0.0640708	0.361199	1.15216	-0.234619	-0.286992	0.0873079	-0.148218	0.0876205	0.20478	-0.00700369	-0.0175713	0.297692	-0.0171298	-0.16096	0.20378	-0.00272088	0.201078	-0.0603647	-0.433664	0.0309752	-0.042557	-0.104895	-0.192773	-0.18901	0.740106	1.90698	-0.0182604	-0.193205	-0.00592126	0.751687	1.96206
0.58	0.141578	-0.0109227	0.0617138	0.371041	1.151	-0.233841	-0.296512	0.0880334	-0.149986	0.0873184	0.209367	0.000340533	-0.0176035	0.291059	-0.0127721	-0.165059	0.168994	-0.00722469	0.21473	-0.0602993	-0.434429	0.0244047	-0.044119	-0.106287	-0.192939	-0.183815	0.735399	1.90964	-0.0152696	-0.192807	-0.0119235	0.747766	1.96235
0.59	0.141112	-0.0117114	0.0593681	0.380987	1.14982	-0.233073	-0.305508	0.0889658	-0.153195	0.0875675	0.213694	0.00969459	-0.0176356	0.284513	-0.00891478	-0.168814	0.135504	-0.0115465	0.227153	-0.060234	-0.434771	0.0181521	-0.0460443	-0.10773	-0.192996	-0.178621	0.730451	1.91246	-0.0127994	-0.192145	-0.0188477	0.743999	1.96211
0.6	0.140291	-0.0128581	0.0570289	0.391034	1.14862	-0.232312	-0.313938	0.0900255	-0.157903	0.0883993	0.217749	0.0211563	-0.0176678	0.278341	-0.00561113	-0.172327	0.103991	-0.0152989	0.238854	-0.0601686	-0.434678	0.0121507	-0.0483314	-0.109242	-0.192919	-0.173525	0.725278	1.91596	-0.010862	-0.191226	-0.0267401	0.74054	1.96095
0.61	0.139089	-0.0143081	0.0546745	0.401175	1.14741	-0.231551	-0.321727	0.0911216	-0.164088	0.0898908	0.221517	0.0346741	-0.0176999	0.27287	-0.00293003	-0.175766	0.0752362	-0.0180552	0.250336	-0.0601033	-0.434144	0.00632096	-0.0509521	-0.110849	-0.192694	-0.168624	0.719914	1.92059	-0.00944835	-0.190071	-0.0355807	0.737515	1.95841
0.62	0.137475	-0.0160183	0.0522696	0.411404	1.14619	-0.230786	-0.328771	0.0921683	-0.171625	0.0921567	0.224972	0.0500101	-0.017732	0.268431	-0.000958223	-0.179343	0.0500553	-0.0193909	0.262025	-0.0600381	-0.433159	0.000585047	-0.0538541	-0.112582	-0.192312	-0.164006	0.714411	1.92661	-0.00853199	-0.188714	-0.0452764	0.734989	1.95412
0.63	0.135422	-0.0179598	0.0497675	0.421717	1.14497	-0.230008	-0.334957	0.0930993	-0.180259	0.0953253	0.228057	0.0667127	-0.0177642	0.2653	0.000211101	-0.183266	0.0291666	-0.0189469	0.274172	-0.0599729	-0.43171	-0.00512309	-0.056965	-0.114475	-0.19177	-0.159748	0.708844	1.934	-0.00807572	-0.187204	-0.0556639	0.732946	1.94791
0.64	0.132912	-0.020111	0.0471079	0.432116	1.14375	-0.229207	-0.340194	0.093874	-0.189593	0.0995042	0.230664	0.0841102	-0.0177963	0.263606	0.00050286	-0.18765	0.0130246	-0.0165102	0.286774	-0.0599077	-0.429783	-0.0108562	-0.0601964	-0.116566	-0.19107	-0.155908	0.7033	1.94243	-0.00804071	-0.185604	-0.0665241	0.731269	1.93991
0.65	0.129954	-0.0224476	0.044214	0.442614	1.14255	-0.228376	-0.344449	0.0944748	-0.199098	0.104744	0.23262	0.101348	-0.0178284	0.263237	-0.000107499	-0.192445	0.00166484	-0.0120925	0.299502	-0.0598425	-0.42738	-0.0166623	-0.0634492	-0.118898	-0.190216	-0.15251	0.697872	1.95132	-0.00839519	-0.183985	-0.0776103	0.729751	1.93066
0.66	0.126596	-0.0249336	0.0409929	0.453234	1.14138	-0.227505	-0.347776	0.0948937	-0.208171	0.111015	0.233697	0.117489	-0.0178605	0.263795	-0.00156645	-0.1974	-0.00534932	-0.00597469	0.311719	-0.0597774	-0.424524	-0.0225997	-0.0666194	-0.121514	-0.189214	-0.149546	0.692651	1.95991	-0.00912	-0.182429	-0.0886813	0.728123	1.92106
